<?xml version="1.0" encoding="UTF-8"?>
<svg xmlns="http://www.w3.org/2000/svg" width="800" height="600" viewBox="0 0 800 600">
  <title>产品市场份额</title>
  <rect x="0" y="0" width="800" height="600" fill="#ffffff" stroke="none" stroke-width="1" rx="0"/>
  <text x="400.0" y="30" fill="#333333" font-size="16" font-family="Arial" text-anchor="middle" dominant-baseline="baseline" font-weight="bold">产品市场份额</text>
  <path d="M 409.35556850397785 285.23309975273474 L 409.35556850397785 75.23309975273474 A 210.0 210.0 0 0 1 579.2491373227168 408.6680027341541 Z" fill="#3498db" stroke="#ffffff" stroke-width="2"/>
  <text x="530.97795905569" y="218.2633965382866" fill="#ffffff" font-size="12" font-family="Arial" text-anchor="middle" dominant-baseline="middle" font-weight="bold">产品 A</text>
  <text x="530.97795905569" y="233.2633965382866" fill="#ffffff" font-size="10" font-family="Arial" text-anchor="middle" dominant-baseline="middle" font-weight="normal">(35.0%)</text>
  <path d="M 400.0 290.0 L 569.893568818739 413.4349029814193 A 210.0 210.0 0 0 1 276.5650970185807 459.89356881873897 Z" fill="#3498db" stroke="#ffffff" stroke-width="2"/>
  <text x="421.35330447799157" y="419.81945849123633" fill="#ffffff" font-size="12" font-family="Arial" text-anchor="middle" dominant-baseline="middle" font-weight="bold">产品 B</text>
  <text x="421.35330447799157" y="434.81945849123633" fill="#ffffff" font-size="10" font-family="Arial" text-anchor="middle" dominant-baseline="middle" font-weight="normal">(25.0%)</text>
  <path d="M 400.0 290.0 L 276.5650970185807 459.89356881873897 A 210.0 210.0 0 0 1 200.27813157801774 225.1064311812611 Z" fill="#3498db" stroke="#ffffff" stroke-width="2"/>
  <text x="270.18078552571154" y="327.18081973218034" fill="#ffffff" font-size="12" font-family="Arial" text-anchor="middle" dominant-baseline="middle" font-weight="bold">产品 C</text>
  <text x="270.18078552571154" y="342.18081973218034" fill="#ffffff" font-size="10" font-family="Arial" text-anchor="middle" dominant-baseline="middle" font-weight="normal">(20.0%)</text>
  <path d="M 400.0 290.0 L 200.27813157801774 225.1064311812611 A 210.0 210.0 0 0 1 298.8317284386398 105.97559719078865 Z" fill="#3498db" stroke="#ffffff" stroke-width="2"/>
  <text x="294.8249423611048" y="197.99162539930387" fill="#ffffff" font-size="12" font-family="Arial" text-anchor="middle" dominant-baseline="middle" font-weight="bold">产品 D</text>
  <text x="294.8249423611048" y="212.99162539930387" fill="#ffffff" font-size="10" font-family="Arial" text-anchor="middle" dominant-baseline="middle" font-weight="normal">(12.0%)</text>
  <path d="M 400.0 290.0 L 298.8317284386398 105.97559719078865 A 210.0 210.0 0 0 1 399.99999999999994 80.0 Z" fill="#3498db" stroke="#ffffff" stroke-width="2"/>
  <text x="366.05383040199723" y="152.78839850594187" fill="#ffffff" font-size="12" font-family="Arial" text-anchor="middle" dominant-baseline="middle" font-weight="bold">其他</text>
  <text x="366.05383040199723" y="167.78839850594187" fill="#ffffff" font-size="10" font-family="Arial" text-anchor="middle" dominant-baseline="middle" font-weight="normal">(8.0%)</text>
  <rect x="590" y="62" width="15" height="15" fill="#3498db" stroke="#3498db" stroke-width="1" rx="0"/>
  <text x="610" y="70" fill="#333333" font-size="12" font-family="Arial" text-anchor="start" dominant-baseline="baseline" font-weight="normal">产品 A: 35.0%</text>
  <rect x="590" y="82" width="15" height="15" fill="#e74c3c" stroke="#e74c3c" stroke-width="1" rx="0"/>
  <text x="610" y="90" fill="#333333" font-size="12" font-family="Arial" text-anchor="start" dominant-baseline="baseline" font-weight="normal">产品 B: 25.0%</text>
  <rect x="590" y="102" width="15" height="15" fill="#2ecc71" stroke="#2ecc71" stroke-width="1" rx="0"/>
  <text x="610" y="110" fill="#333333" font-size="12" font-family="Arial" text-anchor="start" dominant-baseline="baseline" font-weight="normal">产品 C: 20.0%</text>
  <rect x="590" y="122" width="15" height="15" fill="#f39c12" stroke="#f39c12" stroke-width="1" rx="0"/>
  <text x="610" y="130" fill="#333333" font-size="12" font-family="Arial" text-anchor="start" dominant-baseline="baseline" font-weight="normal">产品 D: 12.0%</text>
  <rect x="590" y="142" width="15" height="15" fill="#9b59b6" stroke="#9b59b6" stroke-width="1" rx="0"/>
  <text x="610" y="150" fill="#333333" font-size="12" font-family="Arial" text-anchor="start" dominant-baseline="baseline" font-weight="normal">其他: 8.0%</text>
</svg>