<?xml version="1.0" encoding="UTF-8"?>
<svg xmlns="http://www.w3.org/2000/svg" width="800" height="600" viewBox="0 0 800 600">
  <title>Cumulative Sales</title>
  <rect x="0" y="0" width="800" height="600" fill="#ffffff" stroke="none" stroke-width="1" rx="0"/>
  <text x="400.0" y="30" fill="#333333" font-size="16" font-family="Arial" text-anchor="middle" dominant-baseline="baseline" font-weight="bold">Cumulative Sales</text>
  <line x1="80" y1="60.0" x2="740" y2="60.0" stroke="#e0e0e0" stroke-width="1" stroke-dasharray="2,2"/>
  <text x="70" y="60.0" fill="#333333" font-size="12" font-family="Arial" text-anchor="end" dominant-baseline="middle" font-weight="normal">880.0</text>
  <line x1="80" y1="152.0" x2="740" y2="152.0" stroke="#e0e0e0" stroke-width="1" stroke-dasharray="2,2"/>
  <text x="70" y="152.0" fill="#333333" font-size="12" font-family="Arial" text-anchor="end" dominant-baseline="middle" font-weight="normal">704.0</text>
  <line x1="80" y1="244.0" x2="740" y2="244.0" stroke="#e0e0e0" stroke-width="1" stroke-dasharray="2,2"/>
  <text x="70" y="244.0" fill="#333333" font-size="12" font-family="Arial" text-anchor="end" dominant-baseline="middle" font-weight="normal">528.0</text>
  <line x1="80" y1="336.0" x2="740" y2="336.0" stroke="#e0e0e0" stroke-width="1" stroke-dasharray="2,2"/>
  <text x="70" y="336.0" fill="#333333" font-size="12" font-family="Arial" text-anchor="end" dominant-baseline="middle" font-weight="normal">352.0</text>
  <line x1="80" y1="428.0" x2="740" y2="428.0" stroke="#e0e0e0" stroke-width="1" stroke-dasharray="2,2"/>
  <text x="70" y="428.0" fill="#333333" font-size="12" font-family="Arial" text-anchor="end" dominant-baseline="middle" font-weight="normal">176.0</text>
  <line x1="80" y1="520.0" x2="740" y2="520.0" stroke="#e0e0e0" stroke-width="1" stroke-dasharray="2,2"/>
  <text x="70" y="520.0" fill="#333333" font-size="12" font-family="Arial" text-anchor="end" dominant-baseline="middle" font-weight="normal">0.0</text>
  <polygon points="80.0,457.27272727272725 140.0,441.5909090909091 200.0,425.9090909090909 260.0,405.0 320.0,420.68181818181824 380.0,394.54545454545456 440.0,373.6363636363637 500.0,384.0909090909091 560.0,363.18181818181824 620.0,352.72727272727275 680.0,337.04545454545456 740.0,321.3636363636364 740.0,520.0 680.0,520.0 620.0,520.0 560.0,520.0 500.0,520.0 440.0,520.0 380.0,520.0 320.0,520.0 260.0,520.0 200.0,520.0 140.0,520.0 80.0,520.0" fill="#3498db" fill-opacity="0.6" stroke="#2979af" stroke-width="2"/>
  <polygon points="80.0,384.0909090909091 140.0,352.72727272727275 200.0,321.3636363636364 260.0,274.31818181818187 320.0,300.45454545454544 380.0,248.18181818181822 440.0,206.36363636363637 500.0,227.27272727272734 560.0,180.22727272727278 620.0,154.09090909090918 680.0,127.9545454545455 740.0,101.81818181818188 740.0,321.3636363636364 680.0,337.04545454545456 620.0,352.72727272727275 560.0,363.18181818181824 500.0,384.0909090909091 440.0,373.6363636363637 380.0,394.54545454545456 320.0,420.68181818181824 260.0,405.0 200.0,425.9090909090909 140.0,441.5909090909091 80.0,457.27272727272725" fill="#3498db" fill-opacity="0.6" stroke="#2979af" stroke-width="2"/>
  <text x="80.0" y="540" fill="#333333" font-size="12" font-family="Arial" text-anchor="middle" dominant-baseline="baseline" font-weight="normal">Jan</text>
  <text x="140.0" y="540" fill="#333333" font-size="12" font-family="Arial" text-anchor="middle" dominant-baseline="baseline" font-weight="normal">Feb</text>
  <text x="200.0" y="540" fill="#333333" font-size="12" font-family="Arial" text-anchor="middle" dominant-baseline="baseline" font-weight="normal">Mar</text>
  <text x="260.0" y="540" fill="#333333" font-size="12" font-family="Arial" text-anchor="middle" dominant-baseline="baseline" font-weight="normal">Apr</text>
  <text x="320.0" y="540" fill="#333333" font-size="12" font-family="Arial" text-anchor="middle" dominant-baseline="baseline" font-weight="normal">May</text>
  <text x="380.0" y="540" fill="#333333" font-size="12" font-family="Arial" text-anchor="middle" dominant-baseline="baseline" font-weight="normal">Jun</text>
  <text x="440.0" y="540" fill="#333333" font-size="12" font-family="Arial" text-anchor="middle" dominant-baseline="baseline" font-weight="normal">Jul</text>
  <text x="500.0" y="540" fill="#333333" font-size="12" font-family="Arial" text-anchor="middle" dominant-baseline="baseline" font-weight="normal">Aug</text>
  <text x="560.0" y="540" fill="#333333" font-size="12" font-family="Arial" text-anchor="middle" dominant-baseline="baseline" font-weight="normal">Sep</text>
  <text x="620.0" y="540" fill="#333333" font-size="12" font-family="Arial" text-anchor="middle" dominant-baseline="baseline" font-weight="normal">Oct</text>
  <text x="680.0" y="540" fill="#333333" font-size="12" font-family="Arial" text-anchor="middle" dominant-baseline="baseline" font-weight="normal">Nov</text>
  <text x="740.0" y="540" fill="#333333" font-size="12" font-family="Arial" text-anchor="middle" dominant-baseline="baseline" font-weight="normal">Dec</text>
  <text x="20" y="300.0" fill="#333333" font-size="12" font-family="Arial" text-anchor="middle" dominant-baseline="baseline" font-weight="normal">Sales ($K)</text>
  <rect x="590" y="62" width="15" height="15" fill="#3498db" stroke="#3498db" stroke-width="1" rx="0" fill-opacity="0.6"/>
  <text x="610" y="70" fill="#333333" font-size="12" font-family="Arial" text-anchor="start" dominant-baseline="baseline" font-weight="normal">Sales 2025</text>
  <rect x="590" y="82" width="15" height="15" fill="#3498db" stroke="#3498db" stroke-width="1" rx="0" fill-opacity="0.6"/>
  <text x="610" y="90" fill="#333333" font-size="12" font-family="Arial" text-anchor="start" dominant-baseline="baseline" font-weight="normal">Sales 2026</text>
  <line x1="80" y1="60" x2="80" y2="520" stroke="#333333" stroke-width="2"/>
  <line x1="80" y1="520" x2="740" y2="520" stroke="#333333" stroke-width="2"/>
</svg>