<?xml version="1.0" encoding="UTF-8"?>
<svg xmlns="http://www.w3.org/2000/svg" width="800" height="600" viewBox="0 0 800 600">
  <title>Monthly Sales Comparison</title>
  <rect x="0" y="0" width="800" height="600" fill="#ffffff" stroke="none" stroke-width="1" rx="0"/>
  <text x="400.0" y="30" fill="#333333" font-size="16" font-family="Arial" text-anchor="middle" dominant-baseline="baseline" font-weight="bold">Monthly Sales Comparison</text>
  <line x1="80" y1="60.0" x2="740" y2="60.0" stroke="#e0e0e0" stroke-width="1" stroke-dasharray="2,2"/>
  <text x="70" y="60.0" fill="#333333" font-size="12" font-family="Arial" text-anchor="end" dominant-baseline="middle" font-weight="normal">450.0</text>
  <line x1="80" y1="152.0" x2="740" y2="152.0" stroke="#e0e0e0" stroke-width="1" stroke-dasharray="2,2"/>
  <text x="70" y="152.0" fill="#333333" font-size="12" font-family="Arial" text-anchor="end" dominant-baseline="middle" font-weight="normal">378.0</text>
  <line x1="80" y1="244.0" x2="740" y2="244.0" stroke="#e0e0e0" stroke-width="1" stroke-dasharray="2,2"/>
  <text x="70" y="244.0" fill="#333333" font-size="12" font-family="Arial" text-anchor="end" dominant-baseline="middle" font-weight="normal">306.0</text>
  <line x1="80" y1="336.0" x2="740" y2="336.0" stroke="#e0e0e0" stroke-width="1" stroke-dasharray="2,2"/>
  <text x="70" y="336.0" fill="#333333" font-size="12" font-family="Arial" text-anchor="end" dominant-baseline="middle" font-weight="normal">234.0</text>
  <line x1="80" y1="428.0" x2="740" y2="428.0" stroke="#e0e0e0" stroke-width="1" stroke-dasharray="2,2"/>
  <text x="70" y="428.0" fill="#333333" font-size="12" font-family="Arial" text-anchor="end" dominant-baseline="middle" font-weight="normal">162.0</text>
  <line x1="80" y1="520.0" x2="740" y2="520.0" stroke="#e0e0e0" stroke-width="1" stroke-dasharray="2,2"/>
  <text x="70" y="520.0" fill="#333333" font-size="12" font-family="Arial" text-anchor="end" dominant-baseline="middle" font-weight="normal">90.0</text>
  <text x="80.0" y="540" fill="#333333" font-size="12" font-family="Arial" text-anchor="middle" dominant-baseline="baseline" font-weight="normal">Jan</text>
  <text x="140.0" y="540" fill="#333333" font-size="12" font-family="Arial" text-anchor="middle" dominant-baseline="baseline" font-weight="normal">Feb</text>
  <text x="200.0" y="540" fill="#333333" font-size="12" font-family="Arial" text-anchor="middle" dominant-baseline="baseline" font-weight="normal">Mar</text>
  <text x="260.0" y="540" fill="#333333" font-size="12" font-family="Arial" text-anchor="middle" dominant-baseline="baseline" font-weight="normal">Apr</text>
  <text x="320.0" y="540" fill="#333333" font-size="12" font-family="Arial" text-anchor="middle" dominant-baseline="baseline" font-weight="normal">May</text>
  <text x="380.0" y="540" fill="#333333" font-size="12" font-family="Arial" text-anchor="middle" dominant-baseline="baseline" font-weight="normal">Jun</text>
  <text x="440.0" y="540" fill="#333333" font-size="12" font-family="Arial" text-anchor="middle" dominant-baseline="baseline" font-weight="normal">Jul</text>
  <text x="500.0" y="540" fill="#333333" font-size="12" font-family="Arial" text-anchor="middle" dominant-baseline="baseline" font-weight="normal">Aug</text>
  <text x="560.0" y="540" fill="#333333" font-size="12" font-family="Arial" text-anchor="middle" dominant-baseline="baseline" font-weight="normal">Sep</text>
  <text x="620.0" y="540" fill="#333333" font-size="12" font-family="Arial" text-anchor="middle" dominant-baseline="baseline" font-weight="normal">Oct</text>
  <text x="680.0" y="540" fill="#333333" font-size="12" font-family="Arial" text-anchor="middle" dominant-baseline="baseline" font-weight="normal">Nov</text>
  <text x="740.0" y="540" fill="#333333" font-size="12" font-family="Arial" text-anchor="middle" dominant-baseline="baseline" font-weight="normal">Dec</text>
  <text x="20" y="300.0" fill="#333333" font-size="12" font-family="Arial" text-anchor="middle" dominant-baseline="baseline" font-weight="normal">Sales ($K)</text>
  <polyline points="80.0,481.66666666666663 140.0,443.33333333333337 200.0,405.0 260.0,353.88888888888886 320.0,392.22222222222223 380.0,328.3333333333333 440.0,277.22222222222223 500.0,302.77777777777777 560.0,251.66666666666666 620.0,226.11111111111114 680.0,187.77777777777777 740.0,149.44444444444443" fill="none" stroke="#3498db" stroke-width="2"/>
  <circle cx="80.0" cy="481.66666666666663" r="4" fill="#3498db" stroke="#ffffff" stroke-width="2"/>
  <circle cx="140.0" cy="443.33333333333337" r="4" fill="#3498db" stroke="#ffffff" stroke-width="2"/>
  <circle cx="200.0" cy="405.0" r="4" fill="#3498db" stroke="#ffffff" stroke-width="2"/>
  <circle cx="260.0" cy="353.88888888888886" r="4" fill="#3498db" stroke="#ffffff" stroke-width="2"/>
  <circle cx="320.0" cy="392.22222222222223" r="4" fill="#3498db" stroke="#ffffff" stroke-width="2"/>
  <circle cx="380.0" cy="328.3333333333333" r="4" fill="#3498db" stroke="#ffffff" stroke-width="2"/>
  <circle cx="440.0" cy="277.22222222222223" r="4" fill="#3498db" stroke="#ffffff" stroke-width="2"/>
  <circle cx="500.0" cy="302.77777777777777" r="4" fill="#3498db" stroke="#ffffff" stroke-width="2"/>
  <circle cx="560.0" cy="251.66666666666666" r="4" fill="#3498db" stroke="#ffffff" stroke-width="2"/>
  <circle cx="620.0" cy="226.11111111111114" r="4" fill="#3498db" stroke="#ffffff" stroke-width="2"/>
  <circle cx="680.0" cy="187.77777777777777" r="4" fill="#3498db" stroke="#ffffff" stroke-width="2"/>
  <circle cx="740.0" cy="149.44444444444443" r="4" fill="#3498db" stroke="#ffffff" stroke-width="2"/>
  <polyline points="80.0,456.11111111111114 140.0,417.77777777777777 200.0,379.44444444444446 260.0,315.55555555555554 320.0,341.11111111111114 380.0,277.22222222222223 440.0,226.11111111111114 500.0,251.66666666666666 560.0,187.77777777777777 620.0,149.44444444444443 680.0,123.88888888888886 740.0,98.33333333333334" fill="none" stroke="#3498db" stroke-width="2"/>
  <circle cx="80.0" cy="456.11111111111114" r="4" fill="#3498db" stroke="#ffffff" stroke-width="2"/>
  <circle cx="140.0" cy="417.77777777777777" r="4" fill="#3498db" stroke="#ffffff" stroke-width="2"/>
  <circle cx="200.0" cy="379.44444444444446" r="4" fill="#3498db" stroke="#ffffff" stroke-width="2"/>
  <circle cx="260.0" cy="315.55555555555554" r="4" fill="#3498db" stroke="#ffffff" stroke-width="2"/>
  <circle cx="320.0" cy="341.11111111111114" r="4" fill="#3498db" stroke="#ffffff" stroke-width="2"/>
  <circle cx="380.0" cy="277.22222222222223" r="4" fill="#3498db" stroke="#ffffff" stroke-width="2"/>
  <circle cx="440.0" cy="226.11111111111114" r="4" fill="#3498db" stroke="#ffffff" stroke-width="2"/>
  <circle cx="500.0" cy="251.66666666666666" r="4" fill="#3498db" stroke="#ffffff" stroke-width="2"/>
  <circle cx="560.0" cy="187.77777777777777" r="4" fill="#3498db" stroke="#ffffff" stroke-width="2"/>
  <circle cx="620.0" cy="149.44444444444443" r="4" fill="#3498db" stroke="#ffffff" stroke-width="2"/>
  <circle cx="680.0" cy="123.88888888888886" r="4" fill="#3498db" stroke="#ffffff" stroke-width="2"/>
  <circle cx="740.0" cy="98.33333333333334" r="4" fill="#3498db" stroke="#ffffff" stroke-width="2"/>
  <rect x="590" y="62" width="15" height="15" fill="#3498db" stroke="#3498db" stroke-width="1" rx="0"/>
  <text x="610" y="70" fill="#333333" font-size="12" font-family="Arial" text-anchor="start" dominant-baseline="baseline" font-weight="normal">Sales 2025</text>
  <rect x="590" y="82" width="15" height="15" fill="#3498db" stroke="#3498db" stroke-width="1" rx="0"/>
  <text x="610" y="90" fill="#333333" font-size="12" font-family="Arial" text-anchor="start" dominant-baseline="baseline" font-weight="normal">Sales 2026</text>
  <line x1="80" y1="60" x2="80" y2="520" stroke="#333333" stroke-width="2"/>
  <line x1="80" y1="520" x2="740" y2="520" stroke="#333333" stroke-width="2"/>
</svg>