<?xml version="1.0" encoding="UTF-8"?>
<svg width="400" height="200" viewBox="0 0 400 200" xmlns="http://www.w3.org/2000/svg">
  <title>Path Examples</title>
  <path d="M 60 50 L 60.0 50.0 L 74.69463130731182 79.77457514062631 L 107.55282581475768 84.54915028125264 L 83.77641290737884 107.72542485937369 L 89.38926261462366 140.45084971874738 L 60.0 125.0 L 30.61073738537635 140.45084971874738 L 36.22358709262116 107.72542485937369 L 12.447174185242318 84.54915028125264 L 45.30536869268817 79.77457514062633 Z" fill="#f1c40f" stroke="#e67e22" stroke-width="2" />
  <path d="M 160.0 50.0 L 203.30127018922192 75.0 L 203.30127018922195 125.0 L 160.0 150.0 L 116.69872981077808 125.00000000000001 L 116.69872981077805 75.00000000000003 L 160.0 50.0 Z" fill="#3498db" stroke="#2980b9" stroke-width="2" />
  <path d="M 235 50 H 325 A 15 15 0 0 1 340 65 V 135 A 15 15 0 0 1 325 150 H 235 A 15 15 0 0 1 220 135 V 65 A 15 15 0 0 1 235 50 Z" fill="#2ecc71" stroke="#27ae60" stroke-width="2" />
  <path d="M 390.0 100.0 A 40 40 0 1 1 350.0 60.0" fill="none" stroke="#e74c3c" stroke-width="4" />
</svg>