<?xml version="1.0" encoding="UTF-8"?>
<svg xmlns="http://www.w3.org/2000/svg" width="570.00" height="143.00" viewBox="0 0 570.00 143.00">
  <rect width="100%" height="100%" height="143.00" fill="#FFFFFF"/>
  <g fill="#000000">
    <rect x="10.00" y="0.00" width="4.00" height="100.00"/><rect x="20.00" y="0.00" width="2.00" height="100.00"/><rect x="24.00" y="0.00" width="2.00" height="100.00"/><rect x="32.00" y="0.00" width="6.00" height="100.00"/><rect x="40.00" y="0.00" width="6.00" height="100.00"/><rect x="48.00" y="0.00" width="4.00" height="100.00"/><rect x="54.00" y="0.00" width="4.00" height="100.00"/><rect x="64.00" y="0.00" width="2.00" height="100.00"/><rect x="68.00" y="0.00" width="6.00" height="100.00"/><rect x="76.00" y="0.00" width="2.00" height="100.00"/><rect x="84.00" y="0.00" width="6.00" height="100.00"/><rect x="92.00" y="0.00" width="4.00" height="100.00"/><rect x="98.00" y="0.00" width="2.00" height="100.00"/><rect x="102.00" y="0.00" width="4.00" height="100.00"/><rect x="112.00" y="0.00" width="2.00" height="100.00"/><rect x="120.00" y="0.00" width="2.00" height="100.00"/><rect x="126.00" y="0.00" width="4.00" height="100.00"/><rect x="132.00" y="0.00" width="6.00" height="100.00"/><rect x="142.00" y="0.00" width="2.00" height="100.00"/><rect x="148.00" y="0.00" width="6.00" height="100.00"/><rect x="156.00" y="0.00" width="4.00" height="100.00"/><rect x="164.00" y="0.00" width="2.00" height="100.00"/><rect x="170.00" y="0.00" width="6.00" height="100.00"/><rect x="178.00" y="0.00" width="4.00" height="100.00"/><rect x="186.00" y="0.00" width="2.00" height="100.00"/><rect x="192.00" y="0.00" width="6.00" height="100.00"/><rect x="202.00" y="0.00" width="4.00" height="100.00"/><rect x="208.00" y="0.00" width="2.00" height="100.00"/><rect x="214.00" y="0.00" width="4.00" height="100.00"/><rect x="220.00" y="0.00" width="6.00" height="100.00"/><rect x="230.00" y="0.00" width="6.00" height="100.00"/><rect x="238.00" y="0.00" width="6.00" height="100.00"/><rect x="246.00" y="0.00" width="4.00" height="100.00"/><rect x="252.00" y="0.00" width="4.00" height="100.00"/><rect x="262.00" y="0.00" width="2.00" height="100.00"/><rect x="266.00" y="0.00" width="6.00" height="100.00"/><rect x="274.00" y="0.00" width="2.00" height="100.00"/><rect x="282.00" y="0.00" width="6.00" height="100.00"/><rect x="290.00" y="0.00" width="4.00" height="100.00"/><rect x="296.00" y="0.00" width="2.00" height="100.00"/><rect x="300.00" y="0.00" width="4.00" height="100.00"/><rect x="310.00" y="0.00" width="2.00" height="100.00"/><rect x="318.00" y="0.00" width="4.00" height="100.00"/><rect x="324.00" y="0.00" width="6.00" height="100.00"/><rect x="332.00" y="0.00" width="6.00" height="100.00"/><rect x="340.00" y="0.00" width="2.00" height="100.00"/><rect x="348.00" y="0.00" width="2.00" height="100.00"/><rect x="356.00" y="0.00" width="4.00" height="100.00"/><rect x="362.00" y="0.00" width="4.00" height="100.00"/><rect x="368.00" y="0.00" width="6.00" height="100.00"/><rect x="380.00" y="0.00" width="2.00" height="100.00"/><rect x="384.00" y="0.00" width="4.00" height="100.00"/><rect x="390.00" y="0.00" width="4.00" height="100.00"/><rect x="398.00" y="0.00" width="4.00" height="100.00"/><rect x="406.00" y="0.00" width="2.00" height="100.00"/><rect x="410.00" y="0.00" width="2.00" height="100.00"/><rect x="418.00" y="0.00" width="4.00" height="100.00"/><rect x="428.00" y="0.00" width="2.00" height="100.00"/><rect x="436.00" y="0.00" width="4.00" height="100.00"/><rect x="442.00" y="0.00" width="6.00" height="100.00"/><rect x="450.00" y="0.00" width="6.00" height="100.00"/><rect x="458.00" y="0.00" width="6.00" height="100.00"/><rect x="466.00" y="0.00" width="4.00" height="100.00"/><rect x="472.00" y="0.00" width="4.00" height="100.00"/><rect x="482.00" y="0.00" width="2.00" height="100.00"/><rect x="486.00" y="0.00" width="2.00" height="100.00"/><rect x="494.00" y="0.00" width="2.00" height="100.00"/><rect x="498.00" y="0.00" width="2.00" height="100.00"/><rect x="506.00" y="0.00" width="4.00" height="100.00"/><rect x="516.00" y="0.00" width="2.00" height="100.00"/><rect x="524.00" y="0.00" width="6.00" height="100.00"/><rect x="532.00" y="0.00" width="4.00" height="100.00"/><rect x="538.00" y="0.00" width="2.00" height="100.00"/><rect x="542.00" y="0.00" width="4.00" height="100.00"/><rect x="548.00" y="0.00" width="6.00" height="100.00"/>
  </g>
  <text x="285.00" y="119.00" text-anchor="middle" font-size="14.00" font-family="monospace">PROD-001-Product Alpha</text>
</svg>