<?xml version="1.0" encoding="UTF-8"?>
<svg xmlns="http://www.w3.org/2000/svg" width="328.00" height="143.00" viewBox="0 0 328.00 143.00">
  <rect width="100%" height="100%" height="143.00" fill="#FFFFFF"/>
  <g fill="#000000">
    <rect x="10.00" y="0.00" width="4.00" height="100.00"/><rect x="20.00" y="0.00" width="2.00" height="100.00"/><rect x="24.00" y="0.00" width="2.00" height="100.00"/><rect x="32.00" y="0.00" width="4.00" height="100.00"/><rect x="42.00" y="0.00" width="2.00" height="100.00"/><rect x="46.00" y="0.00" width="2.00" height="100.00"/><rect x="54.00" y="0.00" width="2.00" height="100.00"/><rect x="62.00" y="0.00" width="4.00" height="100.00"/><rect x="68.00" y="0.00" width="2.00" height="100.00"/><rect x="76.00" y="0.00" width="2.00" height="100.00"/><rect x="84.00" y="0.00" width="4.00" height="100.00"/><rect x="90.00" y="0.00" width="6.00" height="100.00"/><rect x="98.00" y="0.00" width="2.00" height="100.00"/><rect x="106.00" y="0.00" width="4.00" height="100.00"/><rect x="112.00" y="0.00" width="6.00" height="100.00"/><rect x="120.00" y="0.00" width="2.00" height="100.00"/><rect x="128.00" y="0.00" width="6.00" height="100.00"/><rect x="136.00" y="0.00" width="4.00" height="100.00"/><rect x="142.00" y="0.00" width="4.00" height="100.00"/><rect x="148.00" y="0.00" width="4.00" height="100.00"/><rect x="156.00" y="0.00" width="4.00" height="100.00"/><rect x="164.00" y="0.00" width="6.00" height="100.00"/><rect x="172.00" y="0.00" width="2.00" height="100.00"/><rect x="180.00" y="0.00" width="4.00" height="100.00"/><rect x="186.00" y="0.00" width="2.00" height="100.00"/><rect x="194.00" y="0.00" width="6.00" height="100.00"/><rect x="202.00" y="0.00" width="4.00" height="100.00"/><rect x="208.00" y="0.00" width="4.00" height="100.00"/><rect x="218.00" y="0.00" width="2.00" height="100.00"/><rect x="222.00" y="0.00" width="6.00" height="100.00"/><rect x="230.00" y="0.00" width="2.00" height="100.00"/><rect x="238.00" y="0.00" width="4.00" height="100.00"/><rect x="244.00" y="0.00" width="6.00" height="100.00"/><rect x="252.00" y="0.00" width="2.00" height="100.00"/><rect x="256.00" y="0.00" width="4.00" height="100.00"/><rect x="266.00" y="0.00" width="2.00" height="100.00"/><rect x="274.00" y="0.00" width="2.00" height="100.00"/><rect x="278.00" y="0.00" width="4.00" height="100.00"/><rect x="288.00" y="0.00" width="6.00" height="100.00"/><rect x="296.00" y="0.00" width="2.00" height="100.00"/><rect x="300.00" y="0.00" width="4.00" height="100.00"/><rect x="306.00" y="0.00" width="6.00" height="100.00"/>
  </g>
  <text x="164.00" y="119.00" text-anchor="middle" font-size="14.00" font-family="monospace">Hello World</text>
</svg>