<?xml version="1.0" encoding="UTF-8"?>
<svg xmlns="http://www.w3.org/2000/svg" width="525.00" height="172.00" viewBox="0 0 525.00 172.00">
  <rect width="100%" height="100%" height="172.00" fill="#F0F0F0"/>
  <g fill="#0066CC">
    <rect x="15.00" y="0.00" width="6.00" height="120.00"/><rect x="30.00" y="0.00" width="3.00" height="120.00"/><rect x="36.00" y="0.00" width="3.00" height="120.00"/><rect x="48.00" y="0.00" width="3.00" height="120.00"/><rect x="60.00" y="0.00" width="3.00" height="120.00"/><rect x="72.00" y="0.00" width="6.00" height="120.00"/><rect x="81.00" y="0.00" width="6.00" height="120.00"/><rect x="90.00" y="0.00" width="9.00" height="120.00"/><rect x="102.00" y="0.00" width="9.00" height="120.00"/><rect x="114.00" y="0.00" width="6.00" height="120.00"/><rect x="123.00" y="0.00" width="9.00" height="120.00"/><rect x="135.00" y="0.00" width="3.00" height="120.00"/><rect x="147.00" y="0.00" width="6.00" height="120.00"/><rect x="156.00" y="0.00" width="9.00" height="120.00"/><rect x="174.00" y="0.00" width="3.00" height="120.00"/><rect x="180.00" y="0.00" width="3.00" height="120.00"/><rect x="192.00" y="0.00" width="9.00" height="120.00"/><rect x="204.00" y="0.00" width="6.00" height="120.00"/><rect x="213.00" y="0.00" width="3.00" height="120.00"/><rect x="219.00" y="0.00" width="9.00" height="120.00"/><rect x="231.00" y="0.00" width="6.00" height="120.00"/><rect x="246.00" y="0.00" width="3.00" height="120.00"/><rect x="255.00" y="0.00" width="6.00" height="120.00"/><rect x="264.00" y="0.00" width="9.00" height="120.00"/><rect x="279.00" y="0.00" width="6.00" height="120.00"/><rect x="288.00" y="0.00" width="9.00" height="120.00"/><rect x="300.00" y="0.00" width="3.00" height="120.00"/><rect x="312.00" y="0.00" width="6.00" height="120.00"/><rect x="321.00" y="0.00" width="9.00" height="120.00"/><rect x="339.00" y="0.00" width="3.00" height="120.00"/><rect x="345.00" y="0.00" width="9.00" height="120.00"/><rect x="357.00" y="0.00" width="6.00" height="120.00"/><rect x="366.00" y="0.00" width="3.00" height="120.00"/><rect x="378.00" y="0.00" width="3.00" height="120.00"/><rect x="390.00" y="0.00" width="6.00" height="120.00"/><rect x="399.00" y="0.00" width="9.00" height="120.00"/><rect x="411.00" y="0.00" width="3.00" height="120.00"/><rect x="423.00" y="0.00" width="6.00" height="120.00"/><rect x="432.00" y="0.00" width="3.00" height="120.00"/><rect x="444.00" y="0.00" width="3.00" height="120.00"/><rect x="450.00" y="0.00" width="6.00" height="120.00"/><rect x="459.00" y="0.00" width="9.00" height="120.00"/><rect x="477.00" y="0.00" width="3.00" height="120.00"/><rect x="483.00" y="0.00" width="6.00" height="120.00"/><rect x="492.00" y="0.00" width="9.00" height="120.00"/>
  </g>
  <text x="262.50" y="141.00" text-anchor="middle" font-size="16.00" font-family="monospace">CUSTOM-STYLE</text>
</svg>