<?xml version="1.0" encoding="UTF-8"?>
<svg xmlns="http://www.w3.org/2000/svg" width="336.00" height="143.00" viewBox="0 0 336.00 143.00">
  <rect width="100%" height="100%" fill="#FFFFFF"/>
  <g fill="#000000">
    <rect x="10.00" y="0.00" width="2.00" height="100.00"/><rect x="14.00" y="0.00" width="6.00" height="100.00"/><rect x="22.00" y="0.00" width="2.00" height="100.00"/><rect x="30.00" y="0.00" width="2.00" height="100.00"/><rect x="38.00" y="0.00" width="6.00" height="100.00"/><rect x="46.00" y="0.00" width="6.00" height="100.00"/><rect x="54.00" y="0.00" width="2.00" height="100.00"/><rect x="62.00" y="0.00" width="2.00" height="100.00"/><rect x="66.00" y="0.00" width="6.00" height="100.00"/><rect x="74.00" y="0.00" width="6.00" height="100.00"/><rect x="82.00" y="0.00" width="2.00" height="100.00"/><rect x="86.00" y="0.00" width="6.00" height="100.00"/><rect x="98.00" y="0.00" width="2.00" height="100.00"/><rect x="102.00" y="0.00" width="6.00" height="100.00"/><rect x="110.00" y="0.00" width="6.00" height="100.00"/><rect x="118.00" y="0.00" width="6.00" height="100.00"/><rect x="126.00" y="0.00" width="6.00" height="100.00"/><rect x="138.00" y="0.00" width="2.00" height="100.00"/><rect x="142.00" y="0.00" width="6.00" height="100.00"/><rect x="150.00" y="0.00" width="6.00" height="100.00"/><rect x="158.00" y="0.00" width="2.00" height="100.00"/><rect x="162.00" y="0.00" width="2.00" height="100.00"/><rect x="170.00" y="0.00" width="2.00" height="100.00"/><rect x="174.00" y="0.00" width="2.00" height="100.00"/><rect x="182.00" y="0.00" width="6.00" height="100.00"/><rect x="190.00" y="0.00" width="6.00" height="100.00"/><rect x="198.00" y="0.00" width="2.00" height="100.00"/><rect x="206.00" y="0.00" width="2.00" height="100.00"/><rect x="214.00" y="0.00" width="2.00" height="100.00"/><rect x="218.00" y="0.00" width="2.00" height="100.00"/><rect x="222.00" y="0.00" width="2.00" height="100.00"/><rect x="226.00" y="0.00" width="6.00" height="100.00"/><rect x="238.00" y="0.00" width="2.00" height="100.00"/><rect x="246.00" y="0.00" width="2.00" height="100.00"/><rect x="250.00" y="0.00" width="2.00" height="100.00"/><rect x="254.00" y="0.00" width="6.00" height="100.00"/><rect x="262.00" y="0.00" width="6.00" height="100.00"/><rect x="274.00" y="0.00" width="2.00" height="100.00"/><rect x="282.00" y="0.00" width="2.00" height="100.00"/><rect x="286.00" y="0.00" width="2.00" height="100.00"/><rect x="290.00" y="0.00" width="2.00" height="100.00"/><rect x="294.00" y="0.00" width="6.00" height="100.00"/><rect x="302.00" y="0.00" width="2.00" height="100.00"/><rect x="310.00" y="0.00" width="2.00" height="100.00"/><rect x="318.00" y="0.00" width="6.00" height="100.00"/>
  </g>
  <text x="168.00" y="119.00" text-anchor="middle" font-size="14.00" font-family="monospace">ABC-123</text>
</svg>