<?xml version="1.0" encoding="UTF-8"?>
<svg xmlns="http://www.w3.org/2000/svg" width="372.00" height="143.00" viewBox="0 0 372.00 143.00">
  <rect width="100%" height="100%" height="143.00" fill="#FFFFFF"/>
  <g fill="#000000">
    <rect x="10.00" y="0.00" width="4.00" height="100.00"/><rect x="20.00" y="0.00" width="2.00" height="100.00"/><rect x="24.00" y="0.00" width="2.00" height="100.00"/><rect x="32.00" y="0.00" width="4.00" height="100.00"/><rect x="38.00" y="0.00" width="6.00" height="100.00"/><rect x="46.00" y="0.00" width="6.00" height="100.00"/><rect x="54.00" y="0.00" width="2.00" height="100.00"/><rect x="58.00" y="0.00" width="6.00" height="100.00"/><rect x="70.00" y="0.00" width="4.00" height="100.00"/><rect x="76.00" y="0.00" width="4.00" height="100.00"/><rect x="86.00" y="0.00" width="2.00" height="100.00"/><rect x="94.00" y="0.00" width="2.00" height="100.00"/><rect x="98.00" y="0.00" width="6.00" height="100.00"/><rect x="106.00" y="0.00" width="2.00" height="100.00"/><rect x="110.00" y="0.00" width="4.00" height="100.00"/><rect x="120.00" y="0.00" width="2.00" height="100.00"/><rect x="128.00" y="0.00" width="4.00" height="100.00"/><rect x="134.00" y="0.00" width="2.00" height="100.00"/><rect x="142.00" y="0.00" width="4.00" height="100.00"/><rect x="152.00" y="0.00" width="2.00" height="100.00"/><rect x="156.00" y="0.00" width="6.00" height="100.00"/><rect x="164.00" y="0.00" width="4.00" height="100.00"/><rect x="170.00" y="0.00" width="6.00" height="100.00"/><rect x="178.00" y="0.00" width="2.00" height="100.00"/><rect x="186.00" y="0.00" width="2.00" height="100.00"/><rect x="190.00" y="0.00" width="2.00" height="100.00"/><rect x="198.00" y="0.00" width="4.00" height="100.00"/><rect x="208.00" y="0.00" width="2.00" height="100.00"/><rect x="216.00" y="0.00" width="4.00" height="100.00"/><rect x="222.00" y="0.00" width="6.00" height="100.00"/><rect x="230.00" y="0.00" width="2.00" height="100.00"/><rect x="236.00" y="0.00" width="4.00" height="100.00"/><rect x="242.00" y="0.00" width="6.00" height="100.00"/><rect x="252.00" y="0.00" width="2.00" height="100.00"/><rect x="258.00" y="0.00" width="6.00" height="100.00"/><rect x="268.00" y="0.00" width="4.00" height="100.00"/><rect x="274.00" y="0.00" width="4.00" height="100.00"/><rect x="282.00" y="0.00" width="6.00" height="100.00"/><rect x="292.00" y="0.00" width="2.00" height="100.00"/><rect x="296.00" y="0.00" width="6.00" height="100.00"/><rect x="304.00" y="0.00" width="2.00" height="100.00"/><rect x="310.00" y="0.00" width="4.00" height="100.00"/><rect x="318.00" y="0.00" width="2.00" height="100.00"/><rect x="324.00" y="0.00" width="6.00" height="100.00"/><rect x="334.00" y="0.00" width="4.00" height="100.00"/><rect x="340.00" y="0.00" width="2.00" height="100.00"/><rect x="344.00" y="0.00" width="4.00" height="100.00"/><rect x="350.00" y="0.00" width="6.00" height="100.00"/>
  </g>
  <text x="186.00" y="119.00" text-anchor="middle" font-size="14.00" font-family="monospace">Universal-128</text>
</svg>