<?xml version="1.0" encoding="UTF-8"?>
<svg xmlns="http://www.w3.org/2000/svg" width="246.00" height="143.00" viewBox="0 0 246.00 143.00">
  <rect width="100%" height="100%" fill="#FFFFFF"/>
  <g fill="#000000">
    <rect x="12.00" y="0.00" width="2.00" height="100.00"/><rect x="16.00" y="0.00" width="2.00" height="100.00"/><rect x="20.00" y="0.00" width="2.00" height="100.00"/><rect x="28.00" y="0.00" width="2.00" height="100.00"/><rect x="32.00" y="0.00" width="2.00" height="100.00"/><rect x="34.00" y="0.00" width="2.00" height="100.00"/><rect x="38.00" y="0.00" width="2.00" height="100.00"/><rect x="44.00" y="0.00" width="2.00" height="100.00"/><rect x="46.00" y="0.00" width="2.00" height="100.00"/><rect x="48.00" y="0.00" width="2.00" height="100.00"/><rect x="52.00" y="0.00" width="2.00" height="100.00"/><rect x="54.00" y="0.00" width="2.00" height="100.00"/><rect x="60.00" y="0.00" width="2.00" height="100.00"/><rect x="62.00" y="0.00" width="2.00" height="100.00"/><rect x="68.00" y="0.00" width="2.00" height="100.00"/><rect x="74.00" y="0.00" width="2.00" height="100.00"/><rect x="76.00" y="0.00" width="2.00" height="100.00"/><rect x="80.00" y="0.00" width="2.00" height="100.00"/><rect x="82.00" y="0.00" width="2.00" height="100.00"/><rect x="84.00" y="0.00" width="2.00" height="100.00"/><rect x="86.00" y="0.00" width="2.00" height="100.00"/><rect x="90.00" y="0.00" width="2.00" height="100.00"/><rect x="96.00" y="0.00" width="2.00" height="100.00"/><rect x="98.00" y="0.00" width="2.00" height="100.00"/><rect x="100.00" y="0.00" width="2.00" height="100.00"/><rect x="104.00" y="0.00" width="2.00" height="100.00"/><rect x="108.00" y="0.00" width="2.00" height="100.00"/><rect x="112.00" y="0.00" width="2.00" height="100.00"/><rect x="116.00" y="0.00" width="2.00" height="100.00"/><rect x="122.00" y="0.00" width="2.00" height="100.00"/><rect x="124.00" y="0.00" width="2.00" height="100.00"/><rect x="130.00" y="0.00" width="2.00" height="100.00"/><rect x="132.00" y="0.00" width="2.00" height="100.00"/><rect x="138.00" y="0.00" width="2.00" height="100.00"/><rect x="140.00" y="0.00" width="2.00" height="100.00"/><rect x="144.00" y="0.00" width="2.00" height="100.00"/><rect x="146.00" y="0.00" width="2.00" height="100.00"/><rect x="150.00" y="0.00" width="2.00" height="100.00"/><rect x="160.00" y="0.00" width="2.00" height="100.00"/><rect x="166.00" y="0.00" width="2.00" height="100.00"/><rect x="168.00" y="0.00" width="2.00" height="100.00"/><rect x="170.00" y="0.00" width="2.00" height="100.00"/><rect x="174.00" y="0.00" width="2.00" height="100.00"/><rect x="178.00" y="0.00" width="2.00" height="100.00"/><rect x="180.00" y="0.00" width="2.00" height="100.00"/><rect x="182.00" y="0.00" width="2.00" height="100.00"/><rect x="188.00" y="0.00" width="2.00" height="100.00"/><rect x="194.00" y="0.00" width="2.00" height="100.00"/><rect x="202.00" y="0.00" width="2.00" height="100.00"/><rect x="206.00" y="0.00" width="2.00" height="100.00"/><rect x="210.00" y="0.00" width="2.00" height="100.00"/><rect x="214.00" y="0.00" width="2.00" height="100.00"/>
  </g>
  <text x="123.00" y="119.00" text-anchor="middle" font-size="14.00" font-family="monospace">5 901234 123457</text>
</svg>