<?xml version="1.0" encoding="UTF-8"?>
<svg xmlns="http://www.w3.org/2000/svg" width="190.00" height="143.00" viewBox="0 0 190.00 143.00">
  <rect width="100%" height="100%" fill="#FFFFFF"/>
  <g fill="#000000">
    <rect x="12.00" y="0.00" width="2.00" height="100.00"/><rect x="16.00" y="0.00" width="2.00" height="100.00"/><rect x="20.00" y="0.00" width="2.00" height="100.00"/><rect x="26.00" y="0.00" width="2.00" height="100.00"/><rect x="28.00" y="0.00" width="2.00" height="100.00"/><rect x="34.00" y="0.00" width="2.00" height="100.00"/><rect x="40.00" y="0.00" width="2.00" height="100.00"/><rect x="46.00" y="0.00" width="2.00" height="100.00"/><rect x="48.00" y="0.00" width="2.00" height="100.00"/><rect x="52.00" y="0.00" width="2.00" height="100.00"/><rect x="54.00" y="0.00" width="2.00" height="100.00"/><rect x="56.00" y="0.00" width="2.00" height="100.00"/><rect x="58.00" y="0.00" width="2.00" height="100.00"/><rect x="62.00" y="0.00" width="2.00" height="100.00"/><rect x="66.00" y="0.00" width="2.00" height="100.00"/><rect x="74.00" y="0.00" width="2.00" height="100.00"/><rect x="76.00" y="0.00" width="2.00" height="100.00"/><rect x="80.00" y="0.00" width="2.00" height="100.00"/><rect x="84.00" y="0.00" width="2.00" height="100.00"/><rect x="88.00" y="0.00" width="2.00" height="100.00"/><rect x="94.00" y="0.00" width="2.00" height="100.00"/><rect x="96.00" y="0.00" width="2.00" height="100.00"/><rect x="98.00" y="0.00" width="2.00" height="100.00"/><rect x="104.00" y="0.00" width="2.00" height="100.00"/><rect x="114.00" y="0.00" width="2.00" height="100.00"/><rect x="118.00" y="0.00" width="2.00" height="100.00"/><rect x="124.00" y="0.00" width="2.00" height="100.00"/><rect x="132.00" y="0.00" width="2.00" height="100.00"/><rect x="136.00" y="0.00" width="2.00" height="100.00"/><rect x="142.00" y="0.00" width="2.00" height="100.00"/><rect x="144.00" y="0.00" width="2.00" height="100.00"/><rect x="146.00" y="0.00" width="2.00" height="100.00"/><rect x="150.00" y="0.00" width="2.00" height="100.00"/><rect x="154.00" y="0.00" width="2.00" height="100.00"/><rect x="158.00" y="0.00" width="2.00" height="100.00"/>
  </g>
  <text x="95.00" y="119.00" text-anchor="middle" font-size="14.00" font-family="monospace">12345670</text>
</svg>