<?xml version="1.0" encoding="UTF-8"?>
<svg xmlns="http://www.w3.org/2000/svg" width="182.00" height="143.00" viewBox="0 0 182.00 143.00">
  <rect width="100%" height="100%" fill="#FFFFFF"/>
  <g fill="#000000">
    <rect x="10.00" y="0.00" width="2.00" height="100.00"/><rect x="14.00" y="0.00" width="2.00" height="100.00"/><rect x="18.00" y="0.00" width="6.00" height="100.00"/><rect x="26.00" y="0.00" width="2.00" height="100.00"/><rect x="34.00" y="0.00" width="2.00" height="100.00"/><rect x="38.00" y="0.00" width="2.00" height="100.00"/><rect x="42.00" y="0.00" width="6.00" height="100.00"/><rect x="54.00" y="0.00" width="6.00" height="100.00"/><rect x="62.00" y="0.00" width="6.00" height="100.00"/><rect x="70.00" y="0.00" width="2.00" height="100.00"/><rect x="78.00" y="0.00" width="2.00" height="100.00"/><rect x="82.00" y="0.00" width="2.00" height="100.00"/><rect x="90.00" y="0.00" width="6.00" height="100.00"/><rect x="98.00" y="0.00" width="2.00" height="100.00"/><rect x="106.00" y="0.00" width="6.00" height="100.00"/><rect x="118.00" y="0.00" width="2.00" height="100.00"/><rect x="122.00" y="0.00" width="2.00" height="100.00"/><rect x="126.00" y="0.00" width="2.00" height="100.00"/><rect x="134.00" y="0.00" width="2.00" height="100.00"/><rect x="138.00" y="0.00" width="2.00" height="100.00"/><rect x="142.00" y="0.00" width="6.00" height="100.00"/><rect x="154.00" y="0.00" width="6.00" height="100.00"/><rect x="162.00" y="0.00" width="6.00" height="100.00"/><rect x="170.00" y="0.00" width="2.00" height="100.00"/>
  </g>
  <text x="91.00" y="119.00" text-anchor="middle" font-size="14.00" font-family="monospace">12345678</text>
</svg>