<?xml version="1.0" encoding="UTF-8"?>
<svg xmlns="http://www.w3.org/2000/svg" width="120.00" height="163.00" viewBox="0 0 120.00 163.00">
  <rect width="100%" height="100%" fill="#FFFFFF"/>
  <g fill="#000000">
    <rect x="10.00" y="10.00" width="4.00" height="4.00"/><rect x="14.00" y="10.00" width="4.00" height="4.00"/><rect x="18.00" y="10.00" width="4.00" height="4.00"/><rect x="22.00" y="10.00" width="4.00" height="4.00"/><rect x="26.00" y="10.00" width="4.00" height="4.00"/><rect x="30.00" y="10.00" width="4.00" height="4.00"/><rect x="34.00" y="10.00" width="4.00" height="4.00"/><rect x="38.00" y="10.00" width="4.00" height="4.00"/><rect x="42.00" y="10.00" width="4.00" height="4.00"/><rect x="46.00" y="10.00" width="4.00" height="4.00"/><rect x="50.00" y="10.00" width="4.00" height="4.00"/><rect x="54.00" y="10.00" width="4.00" height="4.00"/><rect x="58.00" y="10.00" width="4.00" height="4.00"/><rect x="62.00" y="10.00" width="4.00" height="4.00"/><rect x="66.00" y="10.00" width="4.00" height="4.00"/><rect x="70.00" y="10.00" width="4.00" height="4.00"/><rect x="74.00" y="10.00" width="4.00" height="4.00"/><rect x="78.00" y="10.00" width="4.00" height="4.00"/><rect x="82.00" y="10.00" width="4.00" height="4.00"/><rect x="86.00" y="10.00" width="4.00" height="4.00"/><rect x="90.00" y="10.00" width="4.00" height="4.00"/><rect x="94.00" y="10.00" width="4.00" height="4.00"/><rect x="98.00" y="10.00" width="4.00" height="4.00"/><rect x="102.00" y="10.00" width="4.00" height="4.00"/><rect x="106.00" y="10.00" width="4.00" height="4.00"/><rect x="10.00" y="14.00" width="4.00" height="4.00"/><rect x="18.00" y="14.00" width="4.00" height="4.00"/><rect x="26.00" y="14.00" width="4.00" height="4.00"/><rect x="34.00" y="14.00" width="4.00" height="4.00"/><rect x="42.00" y="14.00" width="4.00" height="4.00"/><rect x="50.00" y="14.00" width="4.00" height="4.00"/><rect x="58.00" y="14.00" width="4.00" height="4.00"/><rect x="66.00" y="14.00" width="4.00" height="4.00"/><rect x="74.00" y="14.00" width="4.00" height="4.00"/><rect x="82.00" y="14.00" width="4.00" height="4.00"/><rect x="90.00" y="14.00" width="4.00" height="4.00"/><rect x="98.00" y="14.00" width="4.00" height="4.00"/><rect x="106.00" y="14.00" width="4.00" height="4.00"/><rect x="10.00" y="18.00" width="4.00" height="4.00"/><rect x="14.00" y="18.00" width="4.00" height="4.00"/><rect x="18.00" y="18.00" width="4.00" height="4.00"/><rect x="22.00" y="18.00" width="4.00" height="4.00"/><rect x="26.00" y="18.00" width="4.00" height="4.00"/><rect x="30.00" y="18.00" width="4.00" height="4.00"/><rect x="34.00" y="18.00" width="4.00" height="4.00"/><rect x="38.00" y="18.00" width="4.00" height="4.00"/><rect x="42.00" y="18.00" width="4.00" height="4.00"/><rect x="46.00" y="18.00" width="4.00" height="4.00"/><rect x="50.00" y="18.00" width="4.00" height="4.00"/><rect x="54.00" y="18.00" width="4.00" height="4.00"/><rect x="58.00" y="18.00" width="4.00" height="4.00"/><rect x="62.00" y="18.00" width="4.00" height="4.00"/><rect x="66.00" y="18.00" width="4.00" height="4.00"/><rect x="70.00" y="18.00" width="4.00" height="4.00"/><rect x="74.00" y="18.00" width="4.00" height="4.00"/><rect x="78.00" y="18.00" width="4.00" height="4.00"/><rect x="82.00" y="18.00" width="4.00" height="4.00"/><rect x="86.00" y="18.00" width="4.00" height="4.00"/><rect x="90.00" y="18.00" width="4.00" height="4.00"/><rect x="94.00" y="18.00" width="4.00" height="4.00"/><rect x="98.00" y="18.00" width="4.00" height="4.00"/><rect x="102.00" y="18.00" width="4.00" height="4.00"/><rect x="106.00" y="18.00" width="4.00" height="4.00"/><rect x="10.00" y="22.00" width="4.00" height="4.00"/><rect x="18.00" y="22.00" width="4.00" height="4.00"/><rect x="26.00" y="22.00" width="4.00" height="4.00"/><rect x="34.00" y="22.00" width="4.00" height="4.00"/><rect x="42.00" y="22.00" width="4.00" height="4.00"/><rect x="50.00" y="22.00" width="4.00" height="4.00"/><rect x="58.00" y="22.00" width="4.00" height="4.00"/><rect x="66.00" y="22.00" width="4.00" height="4.00"/><rect x="74.00" y="22.00" width="4.00" height="4.00"/><rect x="82.00" y="22.00" width="4.00" height="4.00"/><rect x="90.00" y="22.00" width="4.00" height="4.00"/><rect x="98.00" y="22.00" width="4.00" height="4.00"/><rect x="106.00" y="22.00" width="4.00" height="4.00"/><rect x="10.00" y="26.00" width="4.00" height="4.00"/><rect x="14.00" y="26.00" width="4.00" height="4.00"/><rect x="18.00" y="26.00" width="4.00" height="4.00"/><rect x="22.00" y="26.00" width="4.00" height="4.00"/><rect x="26.00" y="26.00" width="4.00" height="4.00"/><rect x="30.00" y="26.00" width="4.00" height="4.00"/><rect x="34.00" y="26.00" width="4.00" height="4.00"/><rect x="38.00" y="26.00" width="4.00" height="4.00"/><rect x="42.00" y="26.00" width="4.00" height="4.00"/><rect x="46.00" y="26.00" width="4.00" height="4.00"/><rect x="50.00" y="26.00" width="4.00" height="4.00"/><rect x="54.00" y="26.00" width="4.00" height="4.00"/><rect x="58.00" y="26.00" width="4.00" height="4.00"/><rect x="62.00" y="26.00" width="4.00" height="4.00"/><rect x="66.00" y="26.00" width="4.00" height="4.00"/><rect x="70.00" y="26.00" width="4.00" height="4.00"/><rect x="74.00" y="26.00" width="4.00" height="4.00"/><rect x="78.00" y="26.00" width="4.00" height="4.00"/><rect x="82.00" y="26.00" width="4.00" height="4.00"/><rect x="86.00" y="26.00" width="4.00" height="4.00"/><rect x="90.00" y="26.00" width="4.00" height="4.00"/><rect x="94.00" y="26.00" width="4.00" height="4.00"/><rect x="98.00" y="26.00" width="4.00" height="4.00"/><rect x="102.00" y="26.00" width="4.00" height="4.00"/><rect x="106.00" y="26.00" width="4.00" height="4.00"/><rect x="10.00" y="30.00" width="4.00" height="4.00"/><rect x="18.00" y="30.00" width="4.00" height="4.00"/><rect x="26.00" y="30.00" width="4.00" height="4.00"/><rect x="34.00" y="30.00" width="4.00" height="4.00"/><rect x="42.00" y="30.00" width="4.00" height="4.00"/><rect x="50.00" y="30.00" width="4.00" height="4.00"/><rect x="58.00" y="30.00" width="4.00" height="4.00"/><rect x="66.00" y="30.00" width="4.00" height="4.00"/><rect x="74.00" y="30.00" width="4.00" height="4.00"/><rect x="82.00" y="30.00" width="4.00" height="4.00"/><rect x="90.00" y="30.00" width="4.00" height="4.00"/><rect x="98.00" y="30.00" width="4.00" height="4.00"/><rect x="106.00" y="30.00" width="4.00" height="4.00"/><rect x="10.00" y="34.00" width="4.00" height="4.00"/><rect x="14.00" y="34.00" width="4.00" height="4.00"/><rect x="18.00" y="34.00" width="4.00" height="4.00"/><rect x="22.00" y="34.00" width="4.00" height="4.00"/><rect x="26.00" y="34.00" width="4.00" height="4.00"/><rect x="30.00" y="34.00" width="4.00" height="4.00"/><rect x="34.00" y="34.00" width="4.00" height="4.00"/><rect x="38.00" y="34.00" width="4.00" height="4.00"/><rect x="42.00" y="34.00" width="4.00" height="4.00"/><rect x="46.00" y="34.00" width="4.00" height="4.00"/><rect x="50.00" y="34.00" width="4.00" height="4.00"/><rect x="54.00" y="34.00" width="4.00" height="4.00"/><rect x="58.00" y="34.00" width="4.00" height="4.00"/><rect x="62.00" y="34.00" width="4.00" height="4.00"/><rect x="66.00" y="34.00" width="4.00" height="4.00"/><rect x="70.00" y="34.00" width="4.00" height="4.00"/><rect x="74.00" y="34.00" width="4.00" height="4.00"/><rect x="78.00" y="34.00" width="4.00" height="4.00"/><rect x="82.00" y="34.00" width="4.00" height="4.00"/><rect x="86.00" y="34.00" width="4.00" height="4.00"/><rect x="90.00" y="34.00" width="4.00" height="4.00"/><rect x="94.00" y="34.00" width="4.00" height="4.00"/><rect x="98.00" y="34.00" width="4.00" height="4.00"/><rect x="102.00" y="34.00" width="4.00" height="4.00"/><rect x="106.00" y="34.00" width="4.00" height="4.00"/><rect x="10.00" y="38.00" width="4.00" height="4.00"/><rect x="18.00" y="38.00" width="4.00" height="4.00"/><rect x="26.00" y="38.00" width="4.00" height="4.00"/><rect x="34.00" y="38.00" width="4.00" height="4.00"/><rect x="42.00" y="38.00" width="4.00" height="4.00"/><rect x="50.00" y="38.00" width="4.00" height="4.00"/><rect x="58.00" y="38.00" width="4.00" height="4.00"/><rect x="66.00" y="38.00" width="4.00" height="4.00"/><rect x="74.00" y="38.00" width="4.00" height="4.00"/><rect x="82.00" y="38.00" width="4.00" height="4.00"/><rect x="90.00" y="38.00" width="4.00" height="4.00"/><rect x="98.00" y="38.00" width="4.00" height="4.00"/><rect x="106.00" y="38.00" width="4.00" height="4.00"/><rect x="10.00" y="42.00" width="4.00" height="4.00"/><rect x="14.00" y="42.00" width="4.00" height="4.00"/><rect x="18.00" y="42.00" width="4.00" height="4.00"/><rect x="22.00" y="42.00" width="4.00" height="4.00"/><rect x="26.00" y="42.00" width="4.00" height="4.00"/><rect x="30.00" y="42.00" width="4.00" height="4.00"/><rect x="34.00" y="42.00" width="4.00" height="4.00"/><rect x="38.00" y="42.00" width="4.00" height="4.00"/><rect x="42.00" y="42.00" width="4.00" height="4.00"/><rect x="46.00" y="42.00" width="4.00" height="4.00"/><rect x="50.00" y="42.00" width="4.00" height="4.00"/><rect x="54.00" y="42.00" width="4.00" height="4.00"/><rect x="58.00" y="42.00" width="4.00" height="4.00"/><rect x="62.00" y="42.00" width="4.00" height="4.00"/><rect x="66.00" y="42.00" width="4.00" height="4.00"/><rect x="70.00" y="42.00" width="4.00" height="4.00"/><rect x="74.00" y="42.00" width="4.00" height="4.00"/><rect x="78.00" y="42.00" width="4.00" height="4.00"/><rect x="82.00" y="42.00" width="4.00" height="4.00"/><rect x="86.00" y="42.00" width="4.00" height="4.00"/><rect x="90.00" y="42.00" width="4.00" height="4.00"/><rect x="94.00" y="42.00" width="4.00" height="4.00"/><rect x="98.00" y="42.00" width="4.00" height="4.00"/><rect x="102.00" y="42.00" width="4.00" height="4.00"/><rect x="106.00" y="42.00" width="4.00" height="4.00"/><rect x="10.00" y="46.00" width="4.00" height="4.00"/><rect x="18.00" y="46.00" width="4.00" height="4.00"/><rect x="26.00" y="46.00" width="4.00" height="4.00"/><rect x="34.00" y="46.00" width="4.00" height="4.00"/><rect x="42.00" y="46.00" width="4.00" height="4.00"/><rect x="50.00" y="46.00" width="4.00" height="4.00"/><rect x="58.00" y="46.00" width="4.00" height="4.00"/><rect x="66.00" y="46.00" width="4.00" height="4.00"/><rect x="74.00" y="46.00" width="4.00" height="4.00"/><rect x="82.00" y="46.00" width="4.00" height="4.00"/><rect x="90.00" y="46.00" width="4.00" height="4.00"/><rect x="98.00" y="46.00" width="4.00" height="4.00"/><rect x="106.00" y="46.00" width="4.00" height="4.00"/><rect x="10.00" y="50.00" width="4.00" height="4.00"/><rect x="14.00" y="50.00" width="4.00" height="4.00"/><rect x="18.00" y="50.00" width="4.00" height="4.00"/><rect x="22.00" y="50.00" width="4.00" height="4.00"/><rect x="26.00" y="50.00" width="4.00" height="4.00"/><rect x="30.00" y="50.00" width="4.00" height="4.00"/><rect x="34.00" y="50.00" width="4.00" height="4.00"/><rect x="38.00" y="50.00" width="4.00" height="4.00"/><rect x="42.00" y="50.00" width="4.00" height="4.00"/><rect x="46.00" y="50.00" width="4.00" height="4.00"/><rect x="50.00" y="50.00" width="4.00" height="4.00"/><rect x="54.00" y="50.00" width="4.00" height="4.00"/><rect x="58.00" y="50.00" width="4.00" height="4.00"/><rect x="62.00" y="50.00" width="4.00" height="4.00"/><rect x="66.00" y="50.00" width="4.00" height="4.00"/><rect x="70.00" y="50.00" width="4.00" height="4.00"/><rect x="74.00" y="50.00" width="4.00" height="4.00"/><rect x="78.00" y="50.00" width="4.00" height="4.00"/><rect x="82.00" y="50.00" width="4.00" height="4.00"/><rect x="86.00" y="50.00" width="4.00" height="4.00"/><rect x="90.00" y="50.00" width="4.00" height="4.00"/><rect x="94.00" y="50.00" width="4.00" height="4.00"/><rect x="98.00" y="50.00" width="4.00" height="4.00"/><rect x="102.00" y="50.00" width="4.00" height="4.00"/><rect x="106.00" y="50.00" width="4.00" height="4.00"/><rect x="10.00" y="54.00" width="4.00" height="4.00"/><rect x="18.00" y="54.00" width="4.00" height="4.00"/><rect x="26.00" y="54.00" width="4.00" height="4.00"/><rect x="34.00" y="54.00" width="4.00" height="4.00"/><rect x="42.00" y="54.00" width="4.00" height="4.00"/><rect x="50.00" y="54.00" width="4.00" height="4.00"/><rect x="58.00" y="54.00" width="4.00" height="4.00"/><rect x="66.00" y="54.00" width="4.00" height="4.00"/><rect x="74.00" y="54.00" width="4.00" height="4.00"/><rect x="82.00" y="54.00" width="4.00" height="4.00"/><rect x="90.00" y="54.00" width="4.00" height="4.00"/><rect x="98.00" y="54.00" width="4.00" height="4.00"/><rect x="106.00" y="54.00" width="4.00" height="4.00"/><rect x="10.00" y="58.00" width="4.00" height="4.00"/><rect x="14.00" y="58.00" width="4.00" height="4.00"/><rect x="18.00" y="58.00" width="4.00" height="4.00"/><rect x="22.00" y="58.00" width="4.00" height="4.00"/><rect x="26.00" y="58.00" width="4.00" height="4.00"/><rect x="30.00" y="58.00" width="4.00" height="4.00"/><rect x="34.00" y="58.00" width="4.00" height="4.00"/><rect x="38.00" y="58.00" width="4.00" height="4.00"/><rect x="42.00" y="58.00" width="4.00" height="4.00"/><rect x="46.00" y="58.00" width="4.00" height="4.00"/><rect x="50.00" y="58.00" width="4.00" height="4.00"/><rect x="54.00" y="58.00" width="4.00" height="4.00"/><rect x="58.00" y="58.00" width="4.00" height="4.00"/><rect x="62.00" y="58.00" width="4.00" height="4.00"/><rect x="66.00" y="58.00" width="4.00" height="4.00"/><rect x="70.00" y="58.00" width="4.00" height="4.00"/><rect x="74.00" y="58.00" width="4.00" height="4.00"/><rect x="78.00" y="58.00" width="4.00" height="4.00"/><rect x="82.00" y="58.00" width="4.00" height="4.00"/><rect x="86.00" y="58.00" width="4.00" height="4.00"/><rect x="90.00" y="58.00" width="4.00" height="4.00"/><rect x="94.00" y="58.00" width="4.00" height="4.00"/><rect x="98.00" y="58.00" width="4.00" height="4.00"/><rect x="102.00" y="58.00" width="4.00" height="4.00"/><rect x="106.00" y="58.00" width="4.00" height="4.00"/><rect x="10.00" y="62.00" width="4.00" height="4.00"/><rect x="18.00" y="62.00" width="4.00" height="4.00"/><rect x="26.00" y="62.00" width="4.00" height="4.00"/><rect x="34.00" y="62.00" width="4.00" height="4.00"/><rect x="42.00" y="62.00" width="4.00" height="4.00"/><rect x="50.00" y="62.00" width="4.00" height="4.00"/><rect x="58.00" y="62.00" width="4.00" height="4.00"/><rect x="66.00" y="62.00" width="4.00" height="4.00"/><rect x="74.00" y="62.00" width="4.00" height="4.00"/><rect x="82.00" y="62.00" width="4.00" height="4.00"/><rect x="90.00" y="62.00" width="4.00" height="4.00"/><rect x="98.00" y="62.00" width="4.00" height="4.00"/><rect x="106.00" y="62.00" width="4.00" height="4.00"/><rect x="10.00" y="66.00" width="4.00" height="4.00"/><rect x="14.00" y="66.00" width="4.00" height="4.00"/><rect x="18.00" y="66.00" width="4.00" height="4.00"/><rect x="22.00" y="66.00" width="4.00" height="4.00"/><rect x="26.00" y="66.00" width="4.00" height="4.00"/><rect x="30.00" y="66.00" width="4.00" height="4.00"/><rect x="34.00" y="66.00" width="4.00" height="4.00"/><rect x="38.00" y="66.00" width="4.00" height="4.00"/><rect x="42.00" y="66.00" width="4.00" height="4.00"/><rect x="46.00" y="66.00" width="4.00" height="4.00"/><rect x="50.00" y="66.00" width="4.00" height="4.00"/><rect x="54.00" y="66.00" width="4.00" height="4.00"/><rect x="58.00" y="66.00" width="4.00" height="4.00"/><rect x="62.00" y="66.00" width="4.00" height="4.00"/><rect x="66.00" y="66.00" width="4.00" height="4.00"/><rect x="70.00" y="66.00" width="4.00" height="4.00"/><rect x="74.00" y="66.00" width="4.00" height="4.00"/><rect x="78.00" y="66.00" width="4.00" height="4.00"/><rect x="82.00" y="66.00" width="4.00" height="4.00"/><rect x="86.00" y="66.00" width="4.00" height="4.00"/><rect x="90.00" y="66.00" width="4.00" height="4.00"/><rect x="94.00" y="66.00" width="4.00" height="4.00"/><rect x="98.00" y="66.00" width="4.00" height="4.00"/><rect x="102.00" y="66.00" width="4.00" height="4.00"/><rect x="106.00" y="66.00" width="4.00" height="4.00"/><rect x="10.00" y="70.00" width="4.00" height="4.00"/><rect x="18.00" y="70.00" width="4.00" height="4.00"/><rect x="26.00" y="70.00" width="4.00" height="4.00"/><rect x="34.00" y="70.00" width="4.00" height="4.00"/><rect x="42.00" y="70.00" width="4.00" height="4.00"/><rect x="50.00" y="70.00" width="4.00" height="4.00"/><rect x="58.00" y="70.00" width="4.00" height="4.00"/><rect x="66.00" y="70.00" width="4.00" height="4.00"/><rect x="74.00" y="70.00" width="4.00" height="4.00"/><rect x="82.00" y="70.00" width="4.00" height="4.00"/><rect x="90.00" y="70.00" width="4.00" height="4.00"/><rect x="98.00" y="70.00" width="4.00" height="4.00"/><rect x="106.00" y="70.00" width="4.00" height="4.00"/><rect x="10.00" y="74.00" width="4.00" height="4.00"/><rect x="14.00" y="74.00" width="4.00" height="4.00"/><rect x="18.00" y="74.00" width="4.00" height="4.00"/><rect x="22.00" y="74.00" width="4.00" height="4.00"/><rect x="26.00" y="74.00" width="4.00" height="4.00"/><rect x="30.00" y="74.00" width="4.00" height="4.00"/><rect x="34.00" y="74.00" width="4.00" height="4.00"/><rect x="38.00" y="74.00" width="4.00" height="4.00"/><rect x="42.00" y="74.00" width="4.00" height="4.00"/><rect x="46.00" y="74.00" width="4.00" height="4.00"/><rect x="50.00" y="74.00" width="4.00" height="4.00"/><rect x="54.00" y="74.00" width="4.00" height="4.00"/><rect x="58.00" y="74.00" width="4.00" height="4.00"/><rect x="62.00" y="74.00" width="4.00" height="4.00"/><rect x="66.00" y="74.00" width="4.00" height="4.00"/><rect x="70.00" y="74.00" width="4.00" height="4.00"/><rect x="74.00" y="74.00" width="4.00" height="4.00"/><rect x="78.00" y="74.00" width="4.00" height="4.00"/><rect x="82.00" y="74.00" width="4.00" height="4.00"/><rect x="86.00" y="74.00" width="4.00" height="4.00"/><rect x="90.00" y="74.00" width="4.00" height="4.00"/><rect x="94.00" y="74.00" width="4.00" height="4.00"/><rect x="98.00" y="74.00" width="4.00" height="4.00"/><rect x="102.00" y="74.00" width="4.00" height="4.00"/><rect x="106.00" y="74.00" width="4.00" height="4.00"/><rect x="10.00" y="78.00" width="4.00" height="4.00"/><rect x="18.00" y="78.00" width="4.00" height="4.00"/><rect x="26.00" y="78.00" width="4.00" height="4.00"/><rect x="34.00" y="78.00" width="4.00" height="4.00"/><rect x="42.00" y="78.00" width="4.00" height="4.00"/><rect x="50.00" y="78.00" width="4.00" height="4.00"/><rect x="58.00" y="78.00" width="4.00" height="4.00"/><rect x="66.00" y="78.00" width="4.00" height="4.00"/><rect x="74.00" y="78.00" width="4.00" height="4.00"/><rect x="82.00" y="78.00" width="4.00" height="4.00"/><rect x="90.00" y="78.00" width="4.00" height="4.00"/><rect x="98.00" y="78.00" width="4.00" height="4.00"/><rect x="106.00" y="78.00" width="4.00" height="4.00"/><rect x="10.00" y="82.00" width="4.00" height="4.00"/><rect x="14.00" y="82.00" width="4.00" height="4.00"/><rect x="18.00" y="82.00" width="4.00" height="4.00"/><rect x="22.00" y="82.00" width="4.00" height="4.00"/><rect x="26.00" y="82.00" width="4.00" height="4.00"/><rect x="30.00" y="82.00" width="4.00" height="4.00"/><rect x="34.00" y="82.00" width="4.00" height="4.00"/><rect x="38.00" y="82.00" width="4.00" height="4.00"/><rect x="42.00" y="82.00" width="4.00" height="4.00"/><rect x="46.00" y="82.00" width="4.00" height="4.00"/><rect x="50.00" y="82.00" width="4.00" height="4.00"/><rect x="54.00" y="82.00" width="4.00" height="4.00"/><rect x="58.00" y="82.00" width="4.00" height="4.00"/><rect x="62.00" y="82.00" width="4.00" height="4.00"/><rect x="66.00" y="82.00" width="4.00" height="4.00"/><rect x="70.00" y="82.00" width="4.00" height="4.00"/><rect x="74.00" y="82.00" width="4.00" height="4.00"/><rect x="78.00" y="82.00" width="4.00" height="4.00"/><rect x="82.00" y="82.00" width="4.00" height="4.00"/><rect x="86.00" y="82.00" width="4.00" height="4.00"/><rect x="90.00" y="82.00" width="4.00" height="4.00"/><rect x="94.00" y="82.00" width="4.00" height="4.00"/><rect x="98.00" y="82.00" width="4.00" height="4.00"/><rect x="102.00" y="82.00" width="4.00" height="4.00"/><rect x="106.00" y="82.00" width="4.00" height="4.00"/><rect x="10.00" y="86.00" width="4.00" height="4.00"/><rect x="18.00" y="86.00" width="4.00" height="4.00"/><rect x="26.00" y="86.00" width="4.00" height="4.00"/><rect x="34.00" y="86.00" width="4.00" height="4.00"/><rect x="42.00" y="86.00" width="4.00" height="4.00"/><rect x="50.00" y="86.00" width="4.00" height="4.00"/><rect x="58.00" y="86.00" width="4.00" height="4.00"/><rect x="66.00" y="86.00" width="4.00" height="4.00"/><rect x="74.00" y="86.00" width="4.00" height="4.00"/><rect x="82.00" y="86.00" width="4.00" height="4.00"/><rect x="90.00" y="86.00" width="4.00" height="4.00"/><rect x="98.00" y="86.00" width="4.00" height="4.00"/><rect x="106.00" y="86.00" width="4.00" height="4.00"/><rect x="10.00" y="90.00" width="4.00" height="4.00"/><rect x="14.00" y="90.00" width="4.00" height="4.00"/><rect x="18.00" y="90.00" width="4.00" height="4.00"/><rect x="22.00" y="90.00" width="4.00" height="4.00"/><rect x="26.00" y="90.00" width="4.00" height="4.00"/><rect x="30.00" y="90.00" width="4.00" height="4.00"/><rect x="34.00" y="90.00" width="4.00" height="4.00"/><rect x="38.00" y="90.00" width="4.00" height="4.00"/><rect x="42.00" y="90.00" width="4.00" height="4.00"/><rect x="46.00" y="90.00" width="4.00" height="4.00"/><rect x="50.00" y="90.00" width="4.00" height="4.00"/><rect x="54.00" y="90.00" width="4.00" height="4.00"/><rect x="58.00" y="90.00" width="4.00" height="4.00"/><rect x="62.00" y="90.00" width="4.00" height="4.00"/><rect x="66.00" y="90.00" width="4.00" height="4.00"/><rect x="70.00" y="90.00" width="4.00" height="4.00"/><rect x="74.00" y="90.00" width="4.00" height="4.00"/><rect x="78.00" y="90.00" width="4.00" height="4.00"/><rect x="82.00" y="90.00" width="4.00" height="4.00"/><rect x="86.00" y="90.00" width="4.00" height="4.00"/><rect x="90.00" y="90.00" width="4.00" height="4.00"/><rect x="94.00" y="90.00" width="4.00" height="4.00"/><rect x="98.00" y="90.00" width="4.00" height="4.00"/><rect x="102.00" y="90.00" width="4.00" height="4.00"/><rect x="106.00" y="90.00" width="4.00" height="4.00"/><rect x="10.00" y="94.00" width="4.00" height="4.00"/><rect x="18.00" y="94.00" width="4.00" height="4.00"/><rect x="26.00" y="94.00" width="4.00" height="4.00"/><rect x="34.00" y="94.00" width="4.00" height="4.00"/><rect x="42.00" y="94.00" width="4.00" height="4.00"/><rect x="50.00" y="94.00" width="4.00" height="4.00"/><rect x="58.00" y="94.00" width="4.00" height="4.00"/><rect x="66.00" y="94.00" width="4.00" height="4.00"/><rect x="74.00" y="94.00" width="4.00" height="4.00"/><rect x="82.00" y="94.00" width="4.00" height="4.00"/><rect x="90.00" y="94.00" width="4.00" height="4.00"/><rect x="98.00" y="94.00" width="4.00" height="4.00"/><rect x="106.00" y="94.00" width="4.00" height="4.00"/><rect x="10.00" y="98.00" width="4.00" height="4.00"/><rect x="14.00" y="98.00" width="4.00" height="4.00"/><rect x="18.00" y="98.00" width="4.00" height="4.00"/><rect x="22.00" y="98.00" width="4.00" height="4.00"/><rect x="26.00" y="98.00" width="4.00" height="4.00"/><rect x="30.00" y="98.00" width="4.00" height="4.00"/><rect x="34.00" y="98.00" width="4.00" height="4.00"/><rect x="38.00" y="98.00" width="4.00" height="4.00"/><rect x="42.00" y="98.00" width="4.00" height="4.00"/><rect x="46.00" y="98.00" width="4.00" height="4.00"/><rect x="50.00" y="98.00" width="4.00" height="4.00"/><rect x="54.00" y="98.00" width="4.00" height="4.00"/><rect x="58.00" y="98.00" width="4.00" height="4.00"/><rect x="62.00" y="98.00" width="4.00" height="4.00"/><rect x="66.00" y="98.00" width="4.00" height="4.00"/><rect x="70.00" y="98.00" width="4.00" height="4.00"/><rect x="74.00" y="98.00" width="4.00" height="4.00"/><rect x="78.00" y="98.00" width="4.00" height="4.00"/><rect x="82.00" y="98.00" width="4.00" height="4.00"/><rect x="86.00" y="98.00" width="4.00" height="4.00"/><rect x="90.00" y="98.00" width="4.00" height="4.00"/><rect x="94.00" y="98.00" width="4.00" height="4.00"/><rect x="98.00" y="98.00" width="4.00" height="4.00"/><rect x="102.00" y="98.00" width="4.00" height="4.00"/><rect x="106.00" y="98.00" width="4.00" height="4.00"/><rect x="10.00" y="102.00" width="4.00" height="4.00"/><rect x="18.00" y="102.00" width="4.00" height="4.00"/><rect x="26.00" y="102.00" width="4.00" height="4.00"/><rect x="34.00" y="102.00" width="4.00" height="4.00"/><rect x="42.00" y="102.00" width="4.00" height="4.00"/><rect x="50.00" y="102.00" width="4.00" height="4.00"/><rect x="58.00" y="102.00" width="4.00" height="4.00"/><rect x="66.00" y="102.00" width="4.00" height="4.00"/><rect x="74.00" y="102.00" width="4.00" height="4.00"/><rect x="82.00" y="102.00" width="4.00" height="4.00"/><rect x="90.00" y="102.00" width="4.00" height="4.00"/><rect x="98.00" y="102.00" width="4.00" height="4.00"/><rect x="106.00" y="102.00" width="4.00" height="4.00"/><rect x="10.00" y="106.00" width="4.00" height="4.00"/><rect x="14.00" y="106.00" width="4.00" height="4.00"/><rect x="18.00" y="106.00" width="4.00" height="4.00"/><rect x="22.00" y="106.00" width="4.00" height="4.00"/><rect x="26.00" y="106.00" width="4.00" height="4.00"/><rect x="30.00" y="106.00" width="4.00" height="4.00"/><rect x="34.00" y="106.00" width="4.00" height="4.00"/><rect x="38.00" y="106.00" width="4.00" height="4.00"/><rect x="42.00" y="106.00" width="4.00" height="4.00"/><rect x="46.00" y="106.00" width="4.00" height="4.00"/><rect x="50.00" y="106.00" width="4.00" height="4.00"/><rect x="54.00" y="106.00" width="4.00" height="4.00"/><rect x="58.00" y="106.00" width="4.00" height="4.00"/><rect x="62.00" y="106.00" width="4.00" height="4.00"/><rect x="66.00" y="106.00" width="4.00" height="4.00"/><rect x="70.00" y="106.00" width="4.00" height="4.00"/><rect x="74.00" y="106.00" width="4.00" height="4.00"/><rect x="78.00" y="106.00" width="4.00" height="4.00"/><rect x="82.00" y="106.00" width="4.00" height="4.00"/><rect x="86.00" y="106.00" width="4.00" height="4.00"/><rect x="90.00" y="106.00" width="4.00" height="4.00"/><rect x="94.00" y="106.00" width="4.00" height="4.00"/><rect x="98.00" y="106.00" width="4.00" height="4.00"/><rect x="102.00" y="106.00" width="4.00" height="4.00"/><rect x="106.00" y="106.00" width="4.00" height="4.00"/>
  </g>
  <text x="60.00" y="139.00" text-anchor="middle" font-size="14.00" font-family="monospace">https://example.com/...</text>
</svg>