<?xml version="1.0" encoding="UTF-8"?>
<svg xmlns="http://www.w3.org/2000/svg" width="328.00" height="100.00" viewBox="0 0 328.00 100.00">
  <rect width="100%" height="100%" height="100.00" fill="#FFFFFF"/>
  <g fill="#000000">
    <rect x="10.00" y="0.00" width="4.00" height="100.00"/><rect x="20.00" y="0.00" width="2.00" height="100.00"/><rect x="24.00" y="0.00" width="2.00" height="100.00"/><rect x="32.00" y="0.00" width="4.00" height="100.00"/><rect x="42.00" y="0.00" width="2.00" height="100.00"/><rect x="46.00" y="0.00" width="2.00" height="100.00"/><rect x="54.00" y="0.00" width="4.00" height="100.00"/><rect x="64.00" y="0.00" width="2.00" height="100.00"/><rect x="72.00" y="0.00" width="2.00" height="100.00"/><rect x="76.00" y="0.00" width="2.00" height="100.00"/><rect x="80.00" y="0.00" width="4.00" height="100.00"/><rect x="90.00" y="0.00" width="2.00" height="100.00"/><rect x="98.00" y="0.00" width="2.00" height="100.00"/><rect x="102.00" y="0.00" width="4.00" height="100.00"/><rect x="112.00" y="0.00" width="2.00" height="100.00"/><rect x="120.00" y="0.00" width="2.00" height="100.00"/><rect x="128.00" y="0.00" width="4.00" height="100.00"/><rect x="134.00" y="0.00" width="2.00" height="100.00"/><rect x="142.00" y="0.00" width="2.00" height="100.00"/><rect x="146.00" y="0.00" width="6.00" height="100.00"/><rect x="158.00" y="0.00" width="4.00" height="100.00"/><rect x="164.00" y="0.00" width="2.00" height="100.00"/><rect x="170.00" y="0.00" width="4.00" height="100.00"/><rect x="176.00" y="0.00" width="6.00" height="100.00"/><rect x="186.00" y="0.00" width="4.00" height="100.00"/><rect x="192.00" y="0.00" width="6.00" height="100.00"/><rect x="204.00" y="0.00" width="2.00" height="100.00"/><rect x="208.00" y="0.00" width="2.00" height="100.00"/><rect x="216.00" y="0.00" width="4.00" height="100.00"/><rect x="222.00" y="0.00" width="2.00" height="100.00"/><rect x="230.00" y="0.00" width="6.00" height="100.00"/><rect x="242.00" y="0.00" width="2.00" height="100.00"/><rect x="246.00" y="0.00" width="4.00" height="100.00"/><rect x="252.00" y="0.00" width="4.00" height="100.00"/><rect x="258.00" y="0.00" width="6.00" height="100.00"/><rect x="270.00" y="0.00" width="2.00" height="100.00"/><rect x="274.00" y="0.00" width="6.00" height="100.00"/><rect x="282.00" y="0.00" width="4.00" height="100.00"/><rect x="290.00" y="0.00" width="2.00" height="100.00"/><rect x="296.00" y="0.00" width="2.00" height="100.00"/><rect x="300.00" y="0.00" width="4.00" height="100.00"/><rect x="306.00" y="0.00" width="6.00" height="100.00"/>
  </g>
  
</svg>