<?xml version="1.0" encoding="UTF-8"?>
<svg xmlns="http://www.w3.org/2000/svg" width="1576.00" height="422.00" viewBox="0 0 1576.00 422.00">
  <rect width="100%" height="100%" height="422.00" fill="#FFFFFF"/>
  <g fill="#000000">
    <rect x="40.00" y="0.00" width="16.00" height="300.00"/><rect x="80.00" y="0.00" width="8.00" height="300.00"/><rect x="96.00" y="0.00" width="8.00" height="300.00"/><rect x="128.00" y="0.00" width="24.00" height="300.00"/><rect x="160.00" y="0.00" width="24.00" height="300.00"/><rect x="192.00" y="0.00" width="16.00" height="300.00"/><rect x="216.00" y="0.00" width="16.00" height="300.00"/><rect x="256.00" y="0.00" width="8.00" height="300.00"/><rect x="272.00" y="0.00" width="24.00" height="300.00"/><rect x="304.00" y="0.00" width="16.00" height="300.00"/><rect x="344.00" y="0.00" width="8.00" height="300.00"/><rect x="376.00" y="0.00" width="8.00" height="300.00"/><rect x="392.00" y="0.00" width="8.00" height="300.00"/><rect x="408.00" y="0.00" width="24.00" height="300.00"/><rect x="456.00" y="0.00" width="16.00" height="300.00"/><rect x="480.00" y="0.00" width="16.00" height="300.00"/><rect x="504.00" y="0.00" width="24.00" height="300.00"/><rect x="552.00" y="0.00" width="8.00" height="300.00"/><rect x="568.00" y="0.00" width="8.00" height="300.00"/><rect x="592.00" y="0.00" width="16.00" height="300.00"/><rect x="616.00" y="0.00" width="24.00" height="300.00"/><rect x="656.00" y="0.00" width="16.00" height="300.00"/><rect x="688.00" y="0.00" width="24.00" height="300.00"/><rect x="728.00" y="0.00" width="8.00" height="300.00"/><rect x="744.00" y="0.00" width="8.00" height="300.00"/><rect x="768.00" y="0.00" width="24.00" height="300.00"/><rect x="800.00" y="0.00" width="16.00" height="300.00"/><rect x="832.00" y="0.00" width="16.00" height="300.00"/><rect x="864.00" y="0.00" width="24.00" height="300.00"/><rect x="904.00" y="0.00" width="8.00" height="300.00"/><rect x="920.00" y="0.00" width="16.00" height="300.00"/><rect x="952.00" y="0.00" width="8.00" height="300.00"/><rect x="976.00" y="0.00" width="24.00" height="300.00"/><rect x="1008.00" y="0.00" width="8.00" height="300.00"/><rect x="1032.00" y="0.00" width="16.00" height="300.00"/><rect x="1056.00" y="0.00" width="24.00" height="300.00"/><rect x="1096.00" y="0.00" width="24.00" height="300.00"/><rect x="1144.00" y="0.00" width="8.00" height="300.00"/><rect x="1160.00" y="0.00" width="16.00" height="300.00"/><rect x="1184.00" y="0.00" width="24.00" height="300.00"/><rect x="1216.00" y="0.00" width="16.00" height="300.00"/><rect x="1240.00" y="0.00" width="8.00" height="300.00"/><rect x="1272.00" y="0.00" width="24.00" height="300.00"/><rect x="1304.00" y="0.00" width="16.00" height="300.00"/><rect x="1344.00" y="0.00" width="8.00" height="300.00"/><rect x="1360.00" y="0.00" width="8.00" height="300.00"/><rect x="1392.00" y="0.00" width="16.00" height="300.00"/><rect x="1432.00" y="0.00" width="8.00" height="300.00"/><rect x="1448.00" y="0.00" width="8.00" height="300.00"/><rect x="1464.00" y="0.00" width="16.00" height="300.00"/><rect x="1488.00" y="0.00" width="24.00" height="300.00"/>
  </g>
  <text x="788.00" y="346.00" text-anchor="middle" font-size="36.00" font-family="monospace">PRINT-2024-XYZ</text>
</svg>