<?xml version="1.0" encoding="UTF-8"?>
<svg xmlns="http://www.w3.org/2000/svg" width="196.00" height="143.00" viewBox="0 0 196.00 143.00">
  <rect width="100%" height="100%" height="143.00" fill="#000000"/>
  <g fill="#FFFFFF">
    <rect x="10.00" y="0.00" width="4.00" height="100.00"/><rect x="20.00" y="0.00" width="2.00" height="100.00"/><rect x="24.00" y="0.00" width="2.00" height="100.00"/><rect x="32.00" y="0.00" width="4.00" height="100.00"/><rect x="38.00" y="0.00" width="6.00" height="100.00"/><rect x="50.00" y="0.00" width="2.00" height="100.00"/><rect x="54.00" y="0.00" width="4.00" height="100.00"/><rect x="64.00" y="0.00" width="2.00" height="100.00"/><rect x="68.00" y="0.00" width="2.00" height="100.00"/><rect x="76.00" y="0.00" width="2.00" height="100.00"/><rect x="84.00" y="0.00" width="4.00" height="100.00"/><rect x="90.00" y="0.00" width="2.00" height="100.00"/><rect x="98.00" y="0.00" width="2.00" height="100.00"/><rect x="102.00" y="0.00" width="6.00" height="100.00"/><rect x="110.00" y="0.00" width="4.00" height="100.00"/><rect x="120.00" y="0.00" width="2.00" height="100.00"/><rect x="128.00" y="0.00" width="4.00" height="100.00"/><rect x="134.00" y="0.00" width="2.00" height="100.00"/><rect x="142.00" y="0.00" width="4.00" height="100.00"/><rect x="148.00" y="0.00" width="2.00" height="100.00"/><rect x="154.00" y="0.00" width="2.00" height="100.00"/><rect x="164.00" y="0.00" width="2.00" height="100.00"/><rect x="168.00" y="0.00" width="4.00" height="100.00"/><rect x="174.00" y="0.00" width="6.00" height="100.00"/>
  </g>
  <text x="98.00" y="119.00" text-anchor="middle" font-size="14.00" font-family="monospace">THEME</text>
</svg>