<?xml version="1.0" encoding="UTF-8"?>
<svg xmlns="http://www.w3.org/2000/svg" width="234.00" height="143.00" viewBox="0 0 234.00 143.00">
  <rect width="100%" height="100%" fill="#FFFFFF"/>
  <g fill="#000000">
    <rect x="10.00" y="0.00" width="2.00" height="100.00"/><rect x="14.00" y="0.00" width="2.00" height="100.00"/><rect x="22.00" y="0.00" width="2.00" height="100.00"/><rect x="24.00" y="0.00" width="2.00" height="100.00"/><rect x="28.00" y="0.00" width="2.00" height="100.00"/><rect x="34.00" y="0.00" width="2.00" height="100.00"/><rect x="36.00" y="0.00" width="2.00" height="100.00"/><rect x="42.00" y="0.00" width="2.00" height="100.00"/><rect x="48.00" y="0.00" width="2.00" height="100.00"/><rect x="54.00" y="0.00" width="2.00" height="100.00"/><rect x="56.00" y="0.00" width="2.00" height="100.00"/><rect x="60.00" y="0.00" width="2.00" height="100.00"/><rect x="62.00" y="0.00" width="2.00" height="100.00"/><rect x="64.00" y="0.00" width="2.00" height="100.00"/><rect x="66.00" y="0.00" width="2.00" height="100.00"/><rect x="70.00" y="0.00" width="2.00" height="100.00"/><rect x="74.00" y="0.00" width="2.00" height="100.00"/><rect x="82.00" y="0.00" width="2.00" height="100.00"/><rect x="84.00" y="0.00" width="2.00" height="100.00"/><rect x="88.00" y="0.00" width="2.00" height="100.00"/><rect x="90.00" y="0.00" width="2.00" height="100.00"/><rect x="98.00" y="0.00" width="2.00" height="100.00"/><rect x="102.00" y="0.00" width="2.00" height="100.00"/><rect x="106.00" y="0.00" width="2.00" height="100.00"/><rect x="110.00" y="0.00" width="2.00" height="100.00"/><rect x="122.00" y="0.00" width="2.00" height="100.00"/><rect x="126.00" y="0.00" width="2.00" height="100.00"/><rect x="132.00" y="0.00" width="2.00" height="100.00"/><rect x="140.00" y="0.00" width="2.00" height="100.00"/><rect x="148.00" y="0.00" width="2.00" height="100.00"/><rect x="154.00" y="0.00" width="2.00" height="100.00"/><rect x="160.00" y="0.00" width="2.00" height="100.00"/><rect x="164.00" y="0.00" width="2.00" height="100.00"/><rect x="166.00" y="0.00" width="2.00" height="100.00"/><rect x="168.00" y="0.00" width="2.00" height="100.00"/><rect x="172.00" y="0.00" width="2.00" height="100.00"/><rect x="178.00" y="0.00" width="2.00" height="100.00"/><rect x="180.00" y="0.00" width="2.00" height="100.00"/><rect x="182.00" y="0.00" width="2.00" height="100.00"/><rect x="186.00" y="0.00" width="2.00" height="100.00"/><rect x="188.00" y="0.00" width="2.00" height="100.00"/><rect x="190.00" y="0.00" width="2.00" height="100.00"/><rect x="196.00" y="0.00" width="2.00" height="100.00"/><rect x="198.00" y="0.00" width="2.00" height="100.00"/><rect x="202.00" y="0.00" width="2.00" height="100.00"/>
  </g>
  <text x="117.00" y="119.00" text-anchor="middle" font-size="14.00" font-family="monospace">0 12345 678905 5</text>
</svg>